<svg width="76" height="17" viewBox="0 0 76 17" fill="none" xmlns="http://www.w3.org/2000/svg">
<path d="M0.332 0.399999H2.798V13H0.332V0.399999ZM10.6668 13V7.888C10.6668 7.156 10.5588 6.628 10.3428 6.304C10.1388 5.98 9.78481 5.818 9.28081 5.818C8.83681 5.818 8.45881 5.95 8.14681 6.214C7.84681 6.466 7.63081 6.784 7.49881 7.168V13H5.15881V4H7.01281L7.28281 5.188H7.35481C7.63081 4.804 7.99681 4.468 8.45281 4.18C8.90881 3.892 9.49681 3.748 10.2168 3.748C10.6608 3.748 11.0568 3.808 11.4048 3.928C11.7528 4.048 12.0468 4.246 12.2868 4.522C12.5268 4.798 12.7068 5.176 12.8268 5.656C12.9468 6.124 13.0068 6.706 13.0068 7.402V13H10.6668ZM18.6934 10.516C18.6934 10.276 18.5914 10.084 18.3874 9.94C18.1834 9.796 17.9314 9.664 17.6314 9.544C17.3314 9.424 17.0014 9.304 16.6414 9.184C16.2814 9.052 15.9514 8.878 15.6514 8.662C15.3514 8.434 15.0994 8.152 14.8954 7.816C14.6914 7.468 14.5894 7.024 14.5894 6.484C14.5894 5.596 14.8534 4.918 15.3814 4.45C15.9094 3.982 16.6714 3.748 17.6674 3.748C18.3514 3.748 18.9694 3.82 19.5214 3.964C20.0734 4.108 20.5054 4.27 20.8174 4.45L20.2954 6.142C20.0194 6.034 19.6714 5.92 19.2514 5.8C18.8314 5.68 18.4054 5.62 17.9734 5.62C17.2774 5.62 16.9294 5.89 16.9294 6.43C16.9294 6.646 17.0314 6.82 17.2354 6.952C17.4394 7.084 17.6914 7.21 17.9914 7.33C18.2914 7.438 18.6214 7.558 18.9814 7.69C19.3414 7.822 19.6714 7.996 19.9714 8.212C20.2714 8.416 20.5234 8.686 20.7274 9.022C20.9314 9.358 21.0334 9.79 21.0334 10.318C21.0334 11.23 20.7394 11.95 20.1514 12.478C19.5754 12.994 18.7054 13.252 17.5414 13.252C16.9054 13.252 16.3054 13.168 15.7414 13C15.1894 12.844 14.7394 12.658 14.3914 12.442L15.0394 10.696C15.3154 10.852 15.6814 11.008 16.1374 11.164C16.5934 11.308 17.0614 11.38 17.5414 11.38C17.8894 11.38 18.1654 11.314 18.3694 11.182C18.5854 11.05 18.6934 10.828 18.6934 10.516ZM21.6252 4H22.8672V2.308L25.2072 1.642V4H27.4032V5.98H25.2072V9.436C25.2072 10.06 25.2672 10.51 25.3872 10.786C25.5192 11.05 25.7592 11.182 26.1072 11.182C26.3472 11.182 26.5512 11.158 26.7192 11.11C26.8992 11.062 27.0972 10.99 27.3132 10.894L27.7272 12.694C27.4032 12.85 27.0252 12.982 26.5932 13.09C26.1612 13.198 25.7232 13.252 25.2792 13.252C24.4512 13.252 23.8392 13.042 23.4432 12.622C23.0592 12.19 22.8672 11.488 22.8672 10.516V5.98H21.6252V4ZM28.7825 4.522C29.2625 4.306 29.8325 4.138 30.4925 4.018C31.1525 3.886 31.8425 3.82 32.5625 3.82C33.1865 3.82 33.7085 3.898 34.1285 4.054C34.5485 4.198 34.8785 4.408 35.1185 4.684C35.3705 4.96 35.5445 5.29 35.6405 5.674C35.7485 6.058 35.8025 6.49 35.8025 6.97C35.8025 7.498 35.7845 8.032 35.7485 8.572C35.7125 9.1 35.6885 9.622 35.6765 10.138C35.6765 10.654 35.6945 11.158 35.7305 11.65C35.7665 12.13 35.8565 12.586 36.0005 13.018H34.0925L33.7145 11.776H33.6245C33.3845 12.148 33.0485 12.472 32.6165 12.748C32.1965 13.012 31.6505 13.144 30.9785 13.144C30.5585 13.144 30.1805 13.084 29.8445 12.964C29.5085 12.832 29.2205 12.652 28.9805 12.424C28.7405 12.184 28.5545 11.908 28.4225 11.596C28.2905 11.272 28.2245 10.912 28.2245 10.516C28.2245 9.964 28.3445 9.502 28.5845 9.13C28.8365 8.746 29.1905 8.44 29.6465 8.212C30.1145 7.972 30.6665 7.81 31.3025 7.726C31.9505 7.63 32.6705 7.6 33.4625 7.636C33.5465 6.964 33.4985 6.484 33.3185 6.196C33.1385 5.896 32.7365 5.746 32.1125 5.746C31.6445 5.746 31.1465 5.794 30.6185 5.89C30.1025 5.986 29.6765 6.112 29.3405 6.268L28.7825 4.522ZM31.7525 11.218C32.2205 11.218 32.5925 11.116 32.8685 10.912C33.1445 10.696 33.3485 10.468 33.4805 10.228V9.058C33.1085 9.022 32.7485 9.016 32.4005 9.04C32.0645 9.064 31.7645 9.118 31.5005 9.202C31.2365 9.286 31.0265 9.406 30.8705 9.562C30.7145 9.718 30.6365 9.916 30.6365 10.156C30.6365 10.492 30.7325 10.756 30.9245 10.948C31.1285 11.128 31.4045 11.218 31.7525 11.218ZM45.3802 13C45.3802 14.308 45.0262 15.268 44.3182 15.88C43.6102 16.504 42.6202 16.816 41.3482 16.816C40.4842 16.816 39.8002 16.756 39.2962 16.636C38.8042 16.516 38.4322 16.39 38.1802 16.258L38.6662 14.404C38.9422 14.512 39.2602 14.62 39.6202 14.728C39.9922 14.836 40.4482 14.89 40.9882 14.89C41.8042 14.89 42.3562 14.71 42.6442 14.35C42.9442 14.002 43.0942 13.51 43.0942 12.874V12.298H43.0222C42.6022 12.862 41.8582 13.144 40.7902 13.144C39.6262 13.144 38.7562 12.784 38.1802 12.064C37.6162 11.344 37.3342 10.216 37.3342 8.68C37.3342 7.072 37.7182 5.854 38.4862 5.026C39.2542 4.198 40.3702 3.784 41.8342 3.784C42.6022 3.784 43.2862 3.838 43.8862 3.946C44.4982 4.054 44.9962 4.18 45.3802 4.324V13ZM41.4202 11.272C41.8762 11.272 42.2242 11.17 42.4642 10.966C42.7162 10.762 42.9082 10.456 43.0402 10.048V5.998C42.6682 5.842 42.2062 5.764 41.6542 5.764C41.0542 5.764 40.5862 5.992 40.2502 6.448C39.9142 6.892 39.7462 7.606 39.7462 8.59C39.7462 9.466 39.8902 10.132 40.1782 10.588C40.4662 11.044 40.8802 11.272 41.4202 11.272ZM52.3846 6.196C52.0126 6.064 51.6766 5.998 51.3766 5.998C50.9566 5.998 50.6026 6.112 50.3146 6.34C50.0386 6.556 49.8526 6.838 49.7566 7.186V13H47.4166V4H49.2346L49.5046 5.188H49.5766C49.7806 4.744 50.0566 4.402 50.4046 4.162C50.7526 3.922 51.1606 3.802 51.6286 3.802C51.9406 3.802 52.2946 3.868 52.6906 4L52.3846 6.196ZM53.6732 4.522C54.1532 4.306 54.7232 4.138 55.3832 4.018C56.0432 3.886 56.7332 3.82 57.4532 3.82C58.0772 3.82 58.5992 3.898 59.0192 4.054C59.4392 4.198 59.7692 4.408 60.0092 4.684C60.2612 4.96 60.4352 5.29 60.5312 5.674C60.6392 6.058 60.6932 6.49 60.6932 6.97C60.6932 7.498 60.6752 8.032 60.6392 8.572C60.6032 9.1 60.5792 9.622 60.5672 10.138C60.5672 10.654 60.5852 11.158 60.6212 11.65C60.6572 12.13 60.7472 12.586 60.8912 13.018H58.9832L58.6052 11.776H58.5152C58.2752 12.148 57.9392 12.472 57.5072 12.748C57.0872 13.012 56.5412 13.144 55.8692 13.144C55.4492 13.144 55.0712 13.084 54.7352 12.964C54.3992 12.832 54.1112 12.652 53.8712 12.424C53.6312 12.184 53.4452 11.908 53.3132 11.596C53.1812 11.272 53.1152 10.912 53.1152 10.516C53.1152 9.964 53.2352 9.502 53.4752 9.13C53.7272 8.746 54.0812 8.44 54.5372 8.212C55.0052 7.972 55.5572 7.81 56.1932 7.726C56.8412 7.63 57.5612 7.6 58.3532 7.636C58.4372 6.964 58.3892 6.484 58.2092 6.196C58.0292 5.896 57.6272 5.746 57.0032 5.746C56.5352 5.746 56.0372 5.794 55.5092 5.89C54.9932 5.986 54.5672 6.112 54.2312 6.268L53.6732 4.522ZM56.6432 11.218C57.1112 11.218 57.4832 11.116 57.7592 10.912C58.0352 10.696 58.2392 10.468 58.3712 10.228V9.058C57.9992 9.022 57.6392 9.016 57.2912 9.04C56.9552 9.064 56.6552 9.118 56.3912 9.202C56.1272 9.286 55.9172 9.406 55.7612 9.562C55.6052 9.718 55.5272 9.916 55.5272 10.156C55.5272 10.492 55.6232 10.756 55.8152 10.948C56.0192 11.128 56.2952 11.218 56.6432 11.218ZM67.7689 13V8.104C67.7689 7.276 67.6909 6.688 67.5349 6.34C67.3789 5.992 67.0549 5.818 66.5629 5.818C66.1549 5.818 65.8249 5.932 65.5729 6.16C65.3209 6.376 65.1289 6.658 64.9969 7.006V13H62.6569V4H64.4749L64.7449 5.188H64.8169C65.0929 4.804 65.4409 4.468 65.8609 4.18C66.2929 3.892 66.8449 3.748 67.5169 3.748C68.0929 3.748 68.5609 3.868 68.9209 4.108C69.2929 4.336 69.5809 4.726 69.7849 5.278C70.0609 4.81 70.4149 4.438 70.8469 4.162C71.2789 3.886 71.8009 3.748 72.4129 3.748C72.9169 3.748 73.3429 3.808 73.6909 3.928C74.0509 4.048 74.3389 4.258 74.5549 4.558C74.7829 4.846 74.9509 5.236 75.0589 5.728C75.1669 6.22 75.2209 6.844 75.2209 7.6V13H72.8809V7.942C72.8809 7.234 72.8029 6.706 72.6469 6.358C72.5029 5.998 72.1729 5.818 71.6569 5.818C71.2369 5.818 70.9009 5.932 70.6489 6.16C70.4089 6.388 70.2289 6.7 70.1089 7.096V13H67.7689Z" fill="#171717"/>
</svg>
